<svg width="100" height="100" viewBox="0 0 100 100" fill="none" xmlns="http://www.w3.org/2000/svg">
<path fill-rule="evenodd" clip-rule="evenodd" d="M50 100C77.6142 100 100 77.6142 100 50C100 22.3858 77.6142 0 50 0C22.3858 0 0 22.3858 0 50C0 77.6142 22.3858 100 50 100Z" fill="#99C2E8"/>
<rect x="28.375" y="25.9165" width="44.25" height="54.0833" rx="1.008" fill="#8B5C1E"/>
<rect x="33.2915" y="30.8335" width="34.4167" height="44.25" fill="#E7E9E9"/>
<path fill-rule="evenodd" clip-rule="evenodd" d="M61.5627 43.1248H46.8127C46.1342 43.1248 45.5835 42.5742 45.5835 41.8957C45.5835 41.2172 46.1342 40.6665 46.8127 40.6665H61.5627C62.2412 40.6665 62.7918 41.2172 62.7918 41.8957C62.7918 42.5742 62.2412 43.1248 61.5627 43.1248Z" fill="#3E3832"/>
<path fill-rule="evenodd" clip-rule="evenodd" d="M61.6744 30.8333H39.3259C38.7091 30.8333 38.2085 30.3928 38.2085 29.85V25.9167C38.2085 25.3739 38.7091 24.9333 39.3259 24.9333H45.0248C45.5433 22.6913 47.8027 21 50.5002 21C53.1976 21 55.4571 22.6913 55.9755 24.9333H61.6744C62.2912 24.9333 62.7918 25.3739 62.7918 25.9167V29.85C62.7918 30.3928 62.2912 30.8333 61.6744 30.8333Z" fill="#117938"/>
<path fill-rule="evenodd" clip-rule="evenodd" d="M61.5627 50.4998H46.8127C46.1342 50.4998 45.5835 49.9492 45.5835 49.2707C45.5835 48.5922 46.1342 48.0415 46.8127 48.0415H61.5627C62.2412 48.0415 62.7918 48.5922 62.7918 49.2707C62.7918 49.9492 62.2412 50.4998 61.5627 50.4998Z" fill="#3E3832"/>
<path fill-rule="evenodd" clip-rule="evenodd" d="M61.5627 57.8763H46.8127C46.1342 57.8763 45.5835 57.3232 45.5835 56.6471C45.5835 55.9686 46.1342 55.418 46.8127 55.418H61.5627C62.2412 55.418 62.7918 55.9686 62.7918 56.6471C62.7918 57.3232 62.2412 57.8763 61.5627 57.8763Z" fill="#3E3832"/>
<path fill-rule="evenodd" clip-rule="evenodd" d="M61.5627 65.2513H46.8127C46.1342 65.2513 45.5835 64.6982 45.5835 64.0221C45.5835 63.3436 46.1342 62.793 46.8127 62.793H61.5627C62.2412 62.793 62.7918 63.3436 62.7918 64.0221C62.7918 64.6982 62.2412 65.2513 61.5627 65.2513Z" fill="#3E3832"/>
<path fill-rule="evenodd" clip-rule="evenodd" d="M41.4863 43.1248H39.8474C38.9427 43.1248 38.2085 42.5742 38.2085 41.8957C38.2085 41.2172 38.9427 40.6665 39.8474 40.6665H41.4863C42.3909 40.6665 43.1252 41.2172 43.1252 41.8957C43.1252 42.5742 42.3909 43.1248 41.4863 43.1248Z" fill="#3E3832"/>
<path fill-rule="evenodd" clip-rule="evenodd" d="M41.4863 50.4998H39.8474C38.9427 50.4998 38.2085 49.9492 38.2085 49.2707C38.2085 48.5922 38.9427 48.0415 39.8474 48.0415H41.4863C42.3909 48.0415 43.1252 48.5922 43.1252 49.2707C43.1252 49.9492 42.3909 50.4998 41.4863 50.4998Z" fill="#3E3832"/>
<path fill-rule="evenodd" clip-rule="evenodd" d="M41.4863 57.8763H39.8474C38.9427 57.8763 38.2085 57.3232 38.2085 56.6471C38.2085 55.9686 38.9427 55.418 39.8474 55.418H41.4863C42.3909 55.418 43.1252 55.9686 43.1252 56.6471C43.1252 57.3232 42.3909 57.8763 41.4863 57.8763Z" fill="#3E3832"/>
<path fill-rule="evenodd" clip-rule="evenodd" d="M41.4863 65.2513H39.8474C38.9427 65.2513 38.2085 64.6982 38.2085 64.0221C38.2085 63.3436 38.9427 62.793 39.8474 62.793H41.4863C42.3909 62.793 43.1252 63.3436 43.1252 64.0221C43.1252 64.6982 42.3909 65.2513 41.4863 65.2513Z" fill="#3E3832"/>
</svg>
