<svg width="70" height="102" viewBox="0 0 70 102" fill="none" xmlns="http://www.w3.org/2000/svg">
<path fill-rule="evenodd" clip-rule="evenodd" d="M61.3549 19.4749C58.8125 17.6955 55.3039 18.3091 53.5201 20.8464C51.7362 23.3836 52.3527 26.8821 54.8951 28.6614C57.4388 30.4407 60.9461 29.8271 62.7299 27.2899C64.5138 24.7526 63.8973 21.2542 61.3549 19.4749Z" fill="#FFBD66"/>
<path d="M4.40066 102C3.35095 102 2.5 101.163 2.5 100.13C2.5 99.0967 3.35095 98.2593 4.40066 98.2593H48.0993C49.149 98.2593 50 99.0967 50 100.13C50 101.163 49.149 102 48.0993 102H4.40066Z" fill="#78706A"/>
<path d="M7.85534 48.5459L29.2425 98.1627C29.6522 99.1131 29.1942 100.207 28.2194 100.607C27.2447 101.006 26.1224 100.56 25.7127 99.6093L3.89957 49.0043C3.63578 48.3923 3.72514 47.6897 4.13426 47.1591L35.3052 6.73284C35.9406 5.90879 37.1408 5.74302 37.9859 6.36257C38.831 6.98213 39.001 8.15241 38.3656 8.97646L7.85534 48.5459Z" fill="#78706A"/>
<path fill-rule="evenodd" clip-rule="evenodd" d="M11.25 49.6297C11.25 46.8758 9.01169 44.6421 6.25059 44.6421C3.48831 44.6421 1.25 46.8758 1.25 49.6297C1.25 52.3837 3.48831 54.6174 6.25059 54.6174C9.01169 54.6174 11.25 52.3837 11.25 49.6297Z" fill="#78706A"/>
<path fill-rule="evenodd" clip-rule="evenodd" d="M47.2993 6.64291L41.4889 2.58502C37.6446 -0.0997583 32.4405 0.697463 29.8652 4.36566C27.29 8.03386 28.3188 13.184 32.1631 15.8687L37.973 19.9262C36.7589 27.168 39.7968 34.902 46.388 39.5053L68.6221 7.8344C62.0314 3.23156 53.7067 3.02915 47.2993 6.64291Z" fill="#E7E9E9"/>
</svg>
