<svg width="100" height="100" viewBox="0 0 100 100" fill="none" xmlns="http://www.w3.org/2000/svg">
<path fill-rule="evenodd" clip-rule="evenodd" d="M50 100C77.6142 100 100 77.6142 100 50C100 22.3858 77.6142 0 50 0C22.3858 0 0 22.3858 0 50C0 77.6142 22.3858 100 50 100Z" fill="#99C2E8"/>
<path fill-rule="evenodd" clip-rule="evenodd" d="M80 47.8807V64.8999H21V47.8807L50.5 28.0249L80 47.8807Z" fill="#194D62"/>
<rect x="31.1577" y="21" width="39.3333" height="44.25" fill="#E7E9E9"/>
<path fill-rule="evenodd" clip-rule="evenodd" d="M21 47.6938L38.7 60.7677H62.3L80 47.6938V77.4749C80 78.6774 79.0252 79.6522 77.8227 79.6522H23.1773C21.9748 79.6522 21 78.6774 21 77.4749V47.6938Z" fill="#669DB4"/>
<path fill-rule="evenodd" clip-rule="evenodd" d="M38.7 60.3384H62.3L80 73.3168V73.9538C80 77.2958 77.3585 80.005 74.1 80.005H26.9C23.6415 80.005 21 77.2958 21 73.9538V73.3168L38.7 60.3384Z" fill="#337C9B"/>
<path fill-rule="evenodd" clip-rule="evenodd" d="M39.6835 28.375H44.1085C44.9231 28.375 45.5835 28.9253 45.5835 29.6042C45.5835 30.283 44.9231 30.8333 44.1085 30.8333H39.6835C38.8689 30.8333 38.2085 30.283 38.2085 29.6042C38.2085 28.9253 38.8689 28.375 39.6835 28.375Z" fill="#59514B"/>
<path fill-rule="evenodd" clip-rule="evenodd" d="M46.9072 35.75H61.4681C62.1992 35.75 62.7918 36.3003 62.7918 36.9792C62.7918 37.658 62.1992 38.2083 61.4681 38.2083H46.9072C46.1761 38.2083 45.5835 37.658 45.5835 36.9792C45.5835 36.3003 46.1761 35.75 46.9072 35.75Z" fill="#59514B"/>
<path fill-rule="evenodd" clip-rule="evenodd" d="M39.745 43.125H61.2554C62.1039 43.125 62.7918 43.6753 62.7918 44.3542C62.7918 45.033 62.1039 45.5833 61.2554 45.5833H39.745C38.8964 45.5833 38.2085 45.033 38.2085 44.3542C38.2085 43.6753 38.8964 43.125 39.745 43.125Z" fill="#59514B"/>
<path fill-rule="evenodd" clip-rule="evenodd" d="M39.745 50.5H61.2554C62.1039 50.5 62.7918 51.0503 62.7918 51.7292C62.7918 52.408 62.1039 52.9583 61.2554 52.9583H39.745C38.8964 52.9583 38.2085 52.408 38.2085 51.7292C38.2085 51.0503 38.8964 50.5 39.745 50.5Z" fill="#59514B"/>
</svg>
