<svg width="124" height="105" viewBox="0 0 124 105" fill="none" xmlns="http://www.w3.org/2000/svg">
<rect width="98.1667" height="98.5976" transform="translate(12.916 2.56104)" fill="#C2EAF7"/>
<path fill-rule="evenodd" clip-rule="evenodd" d="M12.916 71.584C52.9787 65.2558 48.7261 91.8021 111.083 78.1711V101.324H12.916V71.584Z" fill="#B5BD33"/>
<path fill-rule="evenodd" clip-rule="evenodd" d="M64.5827 2.56104H59.416V48.6586H12.916V53.7805H59.416V99.8781H64.5827V53.7805H111.083V48.6586H64.5827V2.56104Z" fill="#C6C2BF"/>
<path fill-rule="evenodd" clip-rule="evenodd" d="M37.4378 24.6915C36.3735 24.6915 35.3802 24.3881 34.5396 23.8631C34.3051 25.8006 32.6554 27.3013 30.6546 27.3013C28.7082 27.3013 27.0937 25.8798 26.7925 24.0175C26.5336 24.1159 26.2528 24.1697 25.9595 24.1697C24.6633 24.1697 23.6117 23.1181 23.6117 21.8219C23.6117 21.3338 23.7608 20.8803 24.0159 20.5047C21.1671 20.3103 18.916 17.9374 18.916 15.0393C18.916 12.014 21.369 9.56104 24.3943 9.56104C26.3631 9.56104 28.0895 10.5999 29.0552 12.1594C29.5952 10.6447 31.0423 9.56104 32.7427 9.56104C34.903 9.56104 36.6551 11.3121 36.6551 13.4735C36.6551 13.5808 36.6508 13.6871 36.6424 13.7923C36.902 13.7545 37.1676 13.7349 37.4378 13.7349C40.4637 13.7349 42.916 16.1873 42.916 19.2132C42.916 22.2391 40.4637 24.6915 37.4378 24.6915Z" fill="white"/>
<path fill-rule="evenodd" clip-rule="evenodd" d="M76.1769 22.8841C76.1769 20.4967 74.133 18.561 71.6112 18.561C69.7683 18.561 68.1804 19.5955 67.4595 21.0847C66.513 20.5281 65.405 20.2081 64.2208 20.2081C60.7393 20.2081 57.916 22.9741 57.916 26.385C57.916 29.7959 60.7393 32.561 64.2208 32.561C65.9905 32.561 67.5899 31.8466 68.7349 30.696C69.3322 31.3348 70.2047 31.7375 71.1764 31.7375C72.9779 31.7375 74.4378 30.3547 74.4378 28.6493C74.4378 27.9187 74.1702 27.2476 73.7227 26.719C75.1814 25.9973 76.1769 24.5509 76.1769 22.8841Z" fill="white"/>
<path fill-rule="evenodd" clip-rule="evenodd" d="M108.5 97.2783H15.5V5.14782H108.5V97.2783ZM113.667 97.2783V2.57391C113.667 1.15238 112.51 0 111.083 0H12.9167C11.4899 0 10.3333 1.15238 10.3333 2.57391V97.2783H2.58333C1.1566 97.2783 0 98.4307 0 99.8522V102.426C0 103.848 1.1566 105 2.58333 105H121.417C122.843 105 124 103.848 124 102.426V99.8522C124 98.4307 122.843 97.2783 121.417 97.2783H113.667Z" fill="#C6C2BF"/>
<mask id="mask0" mask-type="alpha" maskUnits="userSpaceOnUse" x="0" y="0" width="124" height="105">
<path fill-rule="evenodd" clip-rule="evenodd" d="M108.5 97.2783H15.5V5.14782H108.5V97.2783ZM113.667 97.2783V2.57391C113.667 1.15238 112.51 0 111.083 0H12.9167C11.4899 0 10.3333 1.15238 10.3333 2.57391V97.2783H2.58333C1.1566 97.2783 0 98.4307 0 99.8522V102.426C0 103.848 1.1566 105 2.58333 105H121.417C122.843 105 124 103.848 124 102.426V99.8522C124 98.4307 122.843 97.2783 121.417 97.2783H113.667Z" fill="white"/>
</mask>
<g mask="url(#mask0)">
</g>
</svg>
